<svg width="53" height="30" viewBox="0 0 53 30" fill="none" xmlns="http://www.w3.org/2000/svg">
<g clip-path="url(#clip0_4029_117281)">
<path d="M48.7598 18.2226L47.8843 19.5894H47.753L45.3843 17.9648C41.2889 17.9648 39.0078 20.5427 39.0078 24.0397C39.0078 27.5368 41.3376 30.0076 44.9271 30.0076L47.7481 28.2275H47.8794L48.7549 29.745H52.8259V18.2275H48.7549L48.7598 18.2226ZM47.5195 23.9717V26.0242C47.5195 26.0242 46.2646 25.8977 45.8172 25.8004C44.9319 25.6059 44.572 24.9785 44.572 24.0154C44.572 23.1253 45.1362 22.4104 46.0263 22.3471C46.4203 22.318 47.5244 22.2888 47.5244 22.2888V23.9717H47.5195Z" fill="#231F20"/>
<path d="M0 18.2109H3.43385H5.46693V29.743H0V18.2109Z" fill="#231F20"/>
<path d="M7.48533 18.2119H12.6458V19.8218H12.6896L16.4737 17.9492C17.9912 17.9492 19.46 18.5183 20.0875 19.992H20.1312L23.4095 17.9492C26.8628 17.9492 27.748 20.5319 27.748 22.7449V29.7391H22.2811V22.7741C22.3054 22.137 22.1497 21.7673 21.318 21.6068C21.318 21.6068 20.7344 21.4949 20.3501 21.4609V29.7342H14.8832V22.7693C14.8832 22.1224 14.8686 21.7624 13.925 21.6117C13.0349 21.4706 12.9474 21.4609 12.9474 21.4609V29.7342H7.48047V18.207L7.48533 18.2119Z" fill="#231F20"/>
<path d="M30.6856 22.4425H28.6914V18.4396H30.6856V16.9901C30.7537 13.9746 32.7478 12.7148 35.5688 12.7148C36.848 12.7148 38.4336 12.7732 38.9541 12.8218V15.5115L35.992 16.0028V18.4396H38.5212V21.8977L36.2011 22.4425V29.7382H30.6904V22.4425H30.6856Z" fill="#231F20"/>
<path d="M5.41829 15.425H0V12.2148H8.51654L5.41829 15.425Z" fill="#F7901E"/>
<path d="M15.6566 11.3507H0V8.14062H18.75L15.6566 11.3507Z" fill="#F7901E"/>
<path d="M25.8949 7.28043H0V4.07031H28.9883L25.8949 7.28043Z" fill="#F7901E"/>
<path d="M36.1284 3.21012H0V0H39.2267L36.1284 3.21012Z" fill="#F7901E"/>
</g>
<defs>
<clipPath id="clip0_4029_117281">
<rect width="52.8307" height="30" fill="white"/>
</clipPath>
</defs>
</svg>
